<?xml version="1.0" encoding="utf-8"?>
<!-- Generator: Adobe Illustrator 18.0.0, SVG Export Plug-In . SVG Version: 6.00 Build 0)  -->
<!DOCTYPE svg PUBLIC "-//W3C//DTD SVG 1.1//EN" "http://www.w3.org/Graphics/SVG/1.1/DTD/svg11.dtd">
<svg version="1.1" id="Layer_1" xmlns="http://www.w3.org/2000/svg" xmlns:xlink="http://www.w3.org/1999/xlink" x="0px" y="0px"
	 viewBox="0 0 2000 2000" enable-background="new 0 0 2000 2000" xml:space="preserve">
<path fill="#00AB67" d="M0,999.9C0,447.5,447.9,0,1000,0c552.4,0,1000,447.5,1000,999.9c0,552.2-447.6,1000.1-1000,1000.1
	C447.9,2000,0,1552.1,0,999.9"/>
<path fill="#FFFFFF" d="M140.9,1000c0-474.9,384.8-860,859.9-860c474.6,0,859.7,385,859.7,860c0,474.9-385.1,859.9-859.7,859.9
	C525.7,1860,140.9,1474.9,140.9,1000"/>
<path fill="#00AB67" d="M1501.8,973.3c0-449.6-397.1-456.4-579.8-456.4H643v956.7h269.9C1205.3,1473.5,1501.8,1392,1501.8,973.3
	 M1284,987c0,250.5-141,321-325.2,321H855.5V683.3h96.4C1082.3,683.3,1284,718.8,1284,987z"/>
</svg>
