<?xml version="1.0" encoding="utf-8"?>
<!-- Generator: Adobe Illustrator 18.0.0, SVG Export Plug-In . SVG Version: 6.00 Build 0)  -->
<!DOCTYPE svg PUBLIC "-//W3C//DTD SVG 1.1//EN" "http://www.w3.org/Graphics/SVG/1.1/DTD/svg11.dtd">
<svg version="1.1" id="Layer_1" xmlns="http://www.w3.org/2000/svg" xmlns:xlink="http://www.w3.org/1999/xlink" x="0px" y="0px"
	 viewBox="0 0 2000 2000" enable-background="new 0 0 2000 2000" xml:space="preserve">
<g id="g6919">
	<path id="path6401" fill="#4F90CD" d="M0,999.8C0,447.4,447.6,0,1000.1,0C1552.4,0,2000,447.4,2000,999.8
		c0,552.3-447.6,1000.2-999.9,1000.2C447.6,1999.9,0,1552.1,0,999.8"/>
	<path id="path6403" fill="#FFFFFF" d="M140.8,999.8c0-475,384.8-859.9,859.3-859.9s859.2,384.9,859.2,859.9
		s-384.7,860.3-859.2,860.3S140.8,1474.8,140.8,999.8"/>
	<path id="path6405" fill="#4F90CD" d="M1410.2,1176.7c0-135.5-82.3-213.9-184.1-227.8v-2.5c74.8-13.7,152.6-88.3,152.6-187.1
		c0-207.4-190-242.6-345.7-242.6H675.3v956.8H1018C1199.2,1473.5,1410.2,1417.8,1410.2,1176.7 M1178.1,787.7
		c0,110-112.3,108.5-184.1,108.5H887.8V676.7H991C1059.9,676.7,1178.1,673.9,1178.1,787.7z M1197.6,1171.1
		c0,124.8-86.8,143.8-185.5,143.8H887.8v-267h112.3C1070.4,1048,1197.6,1052.1,1197.6,1171.1z"/>
</g>
</svg>
