<?xml version="1.0" encoding="UTF-8" standalone="no"?>
<!-- Generator: Adobe Illustrator 13.0.0, SVG Export Plug-In . SVG Version: 6.00 Build 14948)  -->

<svg
   xmlns:dc="http://purl.org/dc/elements/1.1/"
   xmlns:cc="http://creativecommons.org/ns#"
   xmlns:rdf="http://www.w3.org/1999/02/22-rdf-syntax-ns#"
   xmlns:svg="http://www.w3.org/2000/svg"
   xmlns="http://www.w3.org/2000/svg"
   xmlns:xlink="http://www.w3.org/1999/xlink"
   xmlns:sodipodi="http://sodipodi.sourceforge.net/DTD/sodipodi-0.dtd"
   xmlns:inkscape="http://www.inkscape.org/namespaces/inkscape"
   version="1.0"
   id="Layer_1"
   x="0px"
   y="0px"
   width="330"
   height="64"
   viewBox="0 0 330 64"
   enable-background="new 0 0 192.756 192.756"
   xml:space="preserve"
   inkscape:version="0.91 r13725"
   sodipodi:docname="logo Transilien.svg"
   inkscape:export-filename="/media/tom/Lexar_32GB/Smashing/logo_sncf_transilien_165x32.png"
   inkscape:export-xdpi="45"
   inkscape:export-ydpi="45"><metadata
     id="metadata35"><rdf:RDF><cc:Work
         rdf:about=""><dc:format>image/svg+xml</dc:format><dc:type
           rdf:resource="http://purl.org/dc/dcmitype/StillImage" /><dc:title></dc:title></cc:Work></rdf:RDF></metadata><defs
     id="defs33"><linearGradient
       inkscape:collect="always"
       xlink:href="#linearGradient3511"
       id="linearGradient4250"
       gradientUnits="userSpaceOnUse"
       gradientTransform="translate(8.0812204,-405.64188)"
       x1="306.43347"
       y1="91.366501"
       x2="627.00317"
       y2="91.366501" /><linearGradient
       id="linearGradient3511"><stop
         id="stop3513"
         offset="0"
         style="stop-color:#881868;stop-opacity:1;" /><stop
         style="stop-color:#ad0b6a;stop-opacity:1;"
         offset="0.20028181"
         id="stop3515" /><stop
         id="stop3517"
         offset="0.55099988"
         style="stop-color:#c60535;stop-opacity:1;" /><stop
         id="stop3519"
         offset="1"
         style="stop-color:#e00000;stop-opacity:1;" /></linearGradient><filter
       inkscape:collect="always"
       id="filter3646"><feGaussianBlur
         inkscape:collect="always"
         stdDeviation="2.3181348"
         id="feGaussianBlur3648" /></filter><filter
       inkscape:collect="always"
       id="filter4296"><feGaussianBlur
         inkscape:collect="always"
         stdDeviation="1.1204269"
         id="feGaussianBlur4298" /></filter><filter
       inkscape:collect="always"
       id="filter4292"><feGaussianBlur
         inkscape:collect="always"
         stdDeviation="1.1204269"
         id="feGaussianBlur4294" /></filter><filter
       inkscape:collect="always"
       id="filter4288"><feGaussianBlur
         inkscape:collect="always"
         stdDeviation="1.1204269"
         id="feGaussianBlur4290" /></filter><filter
       inkscape:collect="always"
       id="filter4284"
       x="-0.044472937"
       width="1.0889459"
       y="-0.69715506"
       height="2.39431"><feGaussianBlur
         inkscape:collect="always"
         stdDeviation="1.1204269"
         id="feGaussianBlur4286" /></filter></defs><sodipodi:namedview
     pagecolor="#ffffff"
     bordercolor="#666666"
     borderopacity="1"
     objecttolerance="10"
     gridtolerance="10"
     guidetolerance="10"
     inkscape:pageopacity="0"
     inkscape:pageshadow="2"
     inkscape:window-width="1920"
     inkscape:window-height="1097"
     id="namedview31"
     showgrid="false"
     inkscape:zoom="1.2243458"
     inkscape:cx="83.599546"
     inkscape:cy="-98.506716"
     inkscape:window-x="0"
     inkscape:window-y="25"
     inkscape:window-maximized="1"
     inkscape:current-layer="Layer_1" /><g
     id="g4234"
     transform="translate(285.2719,67.949945)"
     style="fill:#49ac42;fill-opacity:1"><path
       d="m -75.0519,-37.60744 c -2.2,-0.107 -2.516,1.462 -2.516,1.462 2.669,1.88 1.856,3.587 1.856,3.587 -3.346,-0.027 -5.361,0.26 -5.361,0.26 -6.196,1.17 -5.899,4.926 -5.899,4.926 0.442,3.514 5.003,3.4 5.003,3.4 l 5.361,-0.051 c 2.766,-2.014 3.607,-6.232 3.607,-6.232 1.3,-5.501 -2.051,-7.352 -2.051,-7.352 l 0,0 0,0 z m -1.198,8.498 c -1.597,3.568 -4.446,3.291 -4.446,3.291 -3.472,0.152 -3.417,-1.555 -3.417,-1.555 -0.181,-4.09 7.942,-3.324 7.942,-3.324 0.585,0.135 -0.079,1.588 -0.079,1.588 l 0,0 z"
       id="path7"
       inkscape:connector-curvature="0"
       style="clip-rule:evenodd;fill:#49ac42;fill-opacity:1;fill-rule:evenodd" /><path
       d="m -85.3379,-37.58444 c 0,0 -8.637,-1.017 -10.661,5.772 l -2.331,7.789 c 0,0 1.806,0.225 2.502,-0.449 0,0 0.626,-0.59 0.924,-1.713 l 1.485,-5.109 c 0,0 0.636,-2.535 3.272,-3.58 0,0 1.234,-0.455 2.539,-0.608 0,0 1.921,-0.052 2.27,-2.102 l 0,0 z"
       id="path9"
       inkscape:connector-curvature="0"
       style="clip-rule:evenodd;fill:#49ac42;fill-opacity:1;fill-rule:evenodd" /><path
       d="m -68.5549,-23.98044 1.788,-6.342 c 0,0 1.188,-5.364 5.579,-6.72 0,0 4.869,-1.75 7.473,0.158 0,0 1.412,0.951 0.863,2.757 l -2.2,7.918 c 0,0 -0.617,2.641 -3.402,2.229 l 2.618,-8.912 c 0,0 0.826,-2.158 -0.9,-2.502 -0.015,-0.014 -5.106,-0.803 -6.745,4.033 l -1.536,4.92 c 0,0 -0.66,2.795 -3.538,2.461 l 0,0 z"
       id="path11"
       inkscape:connector-curvature="0"
       style="clip-rule:evenodd;fill:#49ac42;fill-opacity:1;fill-rule:evenodd" /><path
       d="m 18.9791,-23.98044 1.788,-6.326 c 0,0 1.188,-5.371 5.573,-6.718 0,0 4.865,-1.764 7.468,0.153 0,0 1.416,0.957 0.879,2.752 l -2.215,7.91 c 0,0 -0.611,2.654 -3.383,2.229 l 2.603,-8.912 c 0,0 0.822,-2.158 -0.9,-2.488 -0.022,-0.014 -5.096,-0.816 -6.748,4.029 l -1.526,4.916 c -0.001,0 -0.671,2.803 -3.539,2.455 l 0,0 z"
       id="path13"
       inkscape:connector-curvature="0"
       style="clip-rule:evenodd;fill:#49ac42;fill-opacity:1;fill-rule:evenodd" /><path
       d="m -24.5299,-43.12144 c -0.993,-0.015 -1.973,0.607 -2.194,1.373 -0.108,0.358 -0.033,0.687 0.213,0.943 0.264,0.273 0.678,0.437 1.184,0.437 0.979,0 1.963,-0.623 2.176,-1.389 0,-0.014 0.042,-0.287 0.042,-0.287 0.015,-0.255 -0.084,-0.469 -0.255,-0.649 -0.265,-0.275 -0.683,-0.428 -1.166,-0.428 l 0,0 z"
       id="path15"
       inkscape:connector-curvature="0"
       style="clip-rule:evenodd;fill:#49ac42;fill-opacity:1;fill-rule:evenodd" /><path
       d="m -28.2339,-35.60844 -3.509,11.636 1.151,0.006 c 1.685,-0.094 2.223,-2.047 2.223,-2.047 l 3.51,-11.655 -1.155,0 c -1.751,0.144 -2.206,1.977 -2.22,2.06 l 0,0 z"
       id="path17"
       inkscape:connector-curvature="0"
       style="clip-rule:evenodd;fill:#49ac42;fill-opacity:1;fill-rule:evenodd" /><path
       d="m -1.7319,-43.12144 c -0.979,-0.015 -1.957,0.607 -2.194,1.373 -0.106,0.358 -0.032,0.687 0.219,0.943 0.265,0.273 0.678,0.437 1.175,0.437 0.993,0 1.967,-0.623 2.186,-1.389 0,-0.014 0.047,-0.287 0.047,-0.287 0.008,-0.255 -0.089,-0.469 -0.256,-0.649 -0.271,-0.275 -0.689,-0.428 -1.177,-0.428 l 0,0 z"
       id="path19"
       inkscape:connector-curvature="0"
       style="clip-rule:evenodd;fill:#49ac42;fill-opacity:1;fill-rule:evenodd" /><path
       d="m -5.4289,-35.60844 -3.491,11.636 1.133,0.006 c 1.694,-0.094 2.218,-2.047 2.218,-2.047 l 3.514,-11.655 -1.146,0 c -1.756,0.144 -2.216,1.977 -2.228,2.06 l 0,0 z"
       id="path21"
       inkscape:connector-curvature="0"
       style="clip-rule:evenodd;fill:#49ac42;fill-opacity:1;fill-rule:evenodd" /><path
       d="m -15.4729,-40.53644 c -0.028,0.078 -4.921,16.556 -4.921,16.556 l 1.146,0 c 1.816,-0.148 2.224,-2.057 2.224,-2.057 l 4.948,-16.589 -1.164,0 c -1.715,0.14 -2.133,1.746 -2.233,2.09 l 0,0 z"
       id="path23"
       inkscape:connector-curvature="0"
       style="clip-rule:evenodd;fill:#49ac42;fill-opacity:1;fill-rule:evenodd" /><path
       d="m -34.9719,-36.32744 c -0.828,-1.164 -2.242,-1.657 -4.211,-1.484 -3.067,0.292 -5.797,1.921 -6.35,3.814 -0.102,0.357 -0.161,0.684 -0.161,0.99 0,1.215 0.862,2.051 2.783,2.719 l 1.394,0.496 c 0.998,0.354 1.782,0.721 1.782,1.557 0,0.146 -0.023,0.301 -0.089,0.486 -0.319,1.115 -1.805,1.939 -3.448,1.939 -1.235,0 -2.219,-0.529 -2.9,-1.553 l -0.112,-0.174 -0.089,-0.004 c -0.992,0 -1.972,0.617 -2.194,1.385 l -0.042,0.309 0.028,0.023 0.074,0.084 c 1.031,1.268 2.599,1.912 4.646,1.916 3.031,0 6.137,-1.852 6.786,-4.088 0.497,-1.686 -0.26,-2.822 -2.446,-3.631 l -1.322,-0.49 c -1.026,-0.354 -1.723,-0.627 -1.972,-1.166 -0.131,-0.227 -0.131,-0.525 -0.006,-0.826 0.279,-0.793 1.708,-1.439 2.882,-1.551 1.653,-0.162 2.098,0.465 2.363,0.836 0,0.018 0.125,0.168 0.125,0.168 l 0.051,-0.016 c 0.446,-0.035 1.973,-0.295 2.461,-1.632 l 0.019,-0.047 -0.074,-0.079 0.022,0.019 0,0 z"
       id="path25"
       inkscape:connector-curvature="0"
       style="clip-rule:evenodd;fill:#49ac42;fill-opacity:1;fill-rule:evenodd" /><path
       d="m -92.7319,-66.11144 c -2.8,5.955 -29.498,22.975 -29.498,22.975 -18.797,13.336 -10.689,24.397 -9.64,25.655 -0.042,0.098 -0.057,0.18 -0.057,0.193 l 0,0.023 -0.008,0.006 c -0.015,0.064 -0.33,1.127 -0.776,2.609 l -0.009,0 c -1.067,3.65 -2.418,8.186 -2.552,8.65 0.435,0 1.029,0.004 1.029,0.004 l -0.013,-0.004 c 1.735,-0.145 2.232,-1.912 2.246,-1.99 l 1.133,-3.83 1.513,-5.068 0.08,0.014 c 37.87,4.025 36.552,-49.237 36.552,-49.237 l 0,0 0,0 z m -9.366,25.305 -2.703,0 c -5.294,0.319 -6.418,4.947 -6.432,5.012 l -2.961,9.906 c -0.79,2.172 -3.408,1.865 -3.449,1.865 l 3.388,-11.427 c 1.092,-3.657 2.422,-4.919 3.022,-5.333 -0.622,0 -7.065,0 -7.065,0 0.45,-2.098 2.247,-2.339 2.261,-2.339 l 16.649,0.013 c 0.001,0.02 -0.134,2.159 -2.71,2.303 l 0,0 z"
       id="path27"
       inkscape:connector-curvature="0"
       style="clip-rule:evenodd;fill:#49ac42;fill-opacity:1;fill-rule:evenodd" /><path
       d="m 14.4721,-37.35844 c -7.606,-1.531 -10.615,3.96 -10.615,3.96 -3.991,6.889 0.864,9.611 0.864,9.611 2.344,-0.156 2.39,-1.488 2.39,-1.488 -2.506,-1.838 -1.806,-3.83 -1.806,-3.83 5.167,-0.256 6.731,-0.748 6.731,-0.748 4.038,-0.861 4.539,-3.953 4.539,-3.953 0.52,-2.939 -2.103,-3.552 -2.103,-3.552 l 0,0 0,0 z m -8.483,5.997 c 0,0 1.457,-3.861 6.006,-3.969 0,0 1.856,0.047 1.815,1.629 0,0 0.439,2.508 -7.821,2.34 l 0,0 z"
       id="path29"
       inkscape:connector-curvature="0"
       style="clip-rule:evenodd;fill:#49ac42;fill-opacity:1;fill-rule:evenodd" /></g><g
     id="g4228"
     transform="matrix(0.333882,0,0,0.333882,-80.377404,139.86227)"><path
       sodipodi:nodetypes="cssssscc"
       style="fill:url(#linearGradient4250);fill-opacity:1"
       d="m 285.53554,-233.51485 c 0,0 0.004,-179.00822 0.004,-179.00822 0,0 64.30276,-2.32488 106.38888,1.52618 94.62297,8.6584 173.2611,30.90967 229.14731,64.839 4.18531,2.54097 8.14444,5.26431 8.79806,6.05187 0.94701,1.14108 -2.10122,11.75365 -15.00739,52.24888 -8.90768,27.94932 -17.10207,54.33471 -17.10207,54.33471 -104.0763,-0.0375 -208.15262,-0.009 -312.22892,0.008 z"
       id="path2656"
       inkscape:connector-curvature="0" /><g
       transform="translate(206.32365,-195.96959)"
       id="g3650"><path
         sodipodi:nodetypes="ccsccccccccccsccccccccccccccccccccsccccccccc"
         id="path3552"
         d="m 94.901634,-64.464638 4.308986,-10.28837 c 8.36923,4.63682 63.18419,8.08795 55.35766,-13.99598 -4.24635,-11.981802 -50.91816,-9.61026 -45.92169,-33.103092 9.54788,-20.53692 42.32739,-20.59165 60.99365,-19.52991 8.804,1.04165 12.65954,1.78195 17.17259,3.29735 26.94131,8.88305 36.93699,33.31531 44.34413,51.712442 0,0 11.80182,-54.351532 11.80182,-54.351532 l 14.94863,-0.60442 -5.70347,27.4074 c 1.27868,-1.46585 3.73816,-4.19999 4.72654,-5.8722 13.26747,-17.00985 37.04261,-20.08519 57.28784,-21.78505 5.45231,-0.26211 5.68211,-0.23195 5.68211,0.74596 -1.14996,2.50663 -2.67344,8.42613 -5.29061,8.87657 -13.79449,2.37417 -22.40614,4.08416 -33.46644,10.32529 -15.0576,9.58232 -18.43179,30.283242 -2.67056,40.911182 11.33703,7.46478 23.45241,10.48144 35.8105,7.45885 0,0 15.36875,-67.346472 15.36875,-67.346472 0.6112,-0.61121 7.05592,-0.72153 36.21436,-0.72153 l 34.42141,0 -0.34225,1.55815 c -0.48123,2.19104 -3.46356,8.53858 -4.71446,9.59313 0,0 -51.91128,0.0682 -51.91128,0.0682 l -4.83333,22.62064 c 0,0 42.52814,-0.0613 42.52814,-0.0613 -1.6948,3.71605 -2.33536,9.638612 -5.70377,12.278422 0,0 -40.15164,0.03096 -40.15164,0.03096 0,0 -6.16744,26.40706 -6.16744,26.40706 0,1.00531 -2.55672,4.27632 -3.56203,4.27632 -18.03441,9.78466 -71.42478,3.24593 -78.29501,-26.30256 0,0 -5.89327,29.15073 -5.89327,29.15073 0,0 -15.88224,0.12627 -15.88224,0.12627 -8.24814,-22.72801 -19.99403,-47.847812 -37.30485,-65.098822 0,0 -5.77466,31.228072 -5.77466,31.228072 -3.71967,-1.0116 -11.29499,-9.040182 -11.85651,-12.617332 0,0 6.03553,-29.72242 6.03553,-29.72242 -0.27779,0 -0.50508,0.45457 -0.50508,1.01015 -0.8038,1.85307 -2.0238,4.19053 -4.25439,4.84712 -0.77332,0.0298 -4.45817,0.24848 -8.62505,0.0494 -9.77601,-0.33132 -19.92884,-1.31821 -28.51947,3.68981 -4.48913,2.65076 -8.03861,10.28909 -2.48592,12.98405 12.39722,8.73607 32.95987,7.43988 42.69611,20.005222 2.76583,3.03699 2.75197,5.93338 2.19888,9.68967 -5.09922,27.94136 -62.1988,26.9705 -82.062216,21.05259 z"
         style="opacity:1;fill:#000000;fill-opacity:1;fill-rule:nonzero;stroke:none;stroke-width:8;stroke-linejoin:miter;stroke-miterlimit:4;stroke-dasharray:none;stroke-dashoffset:0;stroke-opacity:1;filter:url(#filter3646)"
         inkscape:connector-curvature="0" /><path
         style="opacity:1;fill:#ffffff;fill-opacity:1;fill-rule:nonzero;stroke:none;stroke-width:8;stroke-linejoin:miter;stroke-miterlimit:4;stroke-dasharray:none;stroke-dashoffset:0;stroke-opacity:1"
         d="m 96.901634,-66.464638 4.308986,-10.28837 c 8.36923,4.63682 63.18419,8.08795 55.35766,-13.99598 -4.24635,-11.981802 -50.91816,-9.610262 -45.92169,-33.103092 9.54788,-20.53692 42.32739,-20.59165 60.99365,-19.52991 8.804,1.04165 12.65954,1.78195 17.17259,3.29735 26.94131,8.88305 36.93699,33.31531 44.34413,51.712442 0,0 11.80182,-54.351532 11.80182,-54.351532 l 14.94863,-0.60442 -5.70347,27.4074 c 1.27868,-1.46585 3.73816,-4.19999 4.72654,-5.8722 13.26747,-17.00985 37.04261,-20.08519 57.28784,-21.78505 5.45231,-0.26211 5.68211,-0.23195 5.68211,0.74596 -1.14996,2.50663 -2.67344,8.42613 -5.29061,8.87657 -13.79449,2.37417 -22.40614,4.08416 -33.46644,10.32529 -15.0576,9.58232 -18.43179,30.283242 -2.67056,40.911182 11.33703,7.46478 23.45241,10.48144 35.8105,7.45885 0,0 15.36875,-67.346472 15.36875,-67.346472 0.6112,-0.61121 7.05592,-0.72153 36.21436,-0.72153 l 34.42141,0 -0.34225,1.55815 c -0.48123,2.19104 -3.46356,8.53858 -4.71446,9.59313 0,0 -51.91128,0.0682 -51.91128,0.0682 l -4.83333,22.62064 c 0,0 42.52814,-0.0613 42.52814,-0.0613 -1.6948,3.71605 -2.33536,9.638612 -5.70377,12.278422 0,0 -40.15164,0.03096 -40.15164,0.03096 0,0 -6.16744,26.40706 -6.16744,26.40706 0,1.00531 -2.55672,4.27632 -3.56203,4.27632 -18.03441,9.78466 -71.42478,3.24593 -78.29501,-26.30256 0,0 -5.89327,29.15073 -5.89327,29.15073 0,0 -15.88224,0.12627 -15.88224,0.12627 -8.24814,-22.72801 -19.99403,-47.847812 -37.30485,-65.098822 0,0 -5.77466,31.228072 -5.77466,31.228072 -3.71967,-1.0116 -11.29499,-9.040182 -11.85651,-12.617332 0,0 6.03553,-29.72242 6.03553,-29.72242 -0.27779,0 -0.50508,0.45457 -0.50508,1.01015 -0.8038,1.85307 -2.0238,4.19053 -4.25439,4.84712 -0.77332,0.0298 -4.45817,0.24848 -8.62505,0.0494 -9.77601,-0.33132 -19.92884,-1.31821 -28.51947,3.68981 -4.48913,2.65076 -8.03861,10.28909 -2.48592,12.98405 12.39722,8.73607 32.95987,7.43988 42.69611,20.005222 2.76583,3.03699 2.75197,5.93338 2.19888,9.68967 -5.09922,27.94136 -62.1988,26.9705 -82.062216,21.05259 z"
         id="path3549"
         sodipodi:nodetypes="ccsccccccccccsccccccccccccccccccccsccccccccc"
         inkscape:connector-curvature="0" /></g><path
       sodipodi:nodetypes="cscsc"
       id="path3746"
       d="m 381.00644,-281.39679 c 7e-5,-7.72461 -6.89006,-13.93013 -21.07143,-18.39286 -10.85661,-3.41646 -23.72589,-6.47955 -25.87119,-14.48595 6.45686,6.57912 14.19366,9.5572 27.69706,13.22278 8.60247,2.33519 19.5674,6.62347 19.22447,19.6664"
       style="opacity:0.5;fill:#a8a8a8;fill-opacity:1;fill-rule:evenodd;stroke:#a4a4a4;stroke-width:0.60000002;stroke-linecap:butt;stroke-linejoin:miter;stroke-miterlimit:4;stroke-dasharray:none;stroke-opacity:1;filter:url(#filter4296)"
       inkscape:connector-curvature="0" /><path
       sodipodi:nodetypes="cs"
       id="path3856"
       d="m 399.07785,-332.62138 c 0,0 25.43191,12.71991 38.80859,57.46713 l -0.15,-7.6771 c 0,0 -13.12489,-41.00143 -38.65859,-49.79003 z"
       style="opacity:0.5;fill:#a8a8a8;fill-opacity:1;fill-rule:evenodd;stroke:#a8a8a8;stroke-width:1px;stroke-linecap:butt;stroke-linejoin:miter;stroke-opacity:1;filter:url(#filter4292)"
       inkscape:connector-curvature="0" /><path
       id="path3870"
       d="m 473.19518,-297.67117 c 0,0 -1.36606,32.31032 47.07442,31.13408 l -0.0506,3.04055 c 0,0 -49.01502,1.67007 -47.02383,-34.17463 z"
       style="opacity:0.5;fill:#a8a8a8;fill-opacity:1;fill-rule:evenodd;stroke:#a8a8a8;stroke-width:1px;stroke-linecap:butt;stroke-linejoin:miter;stroke-opacity:1;filter:url(#filter4288)"
       inkscape:connector-curvature="0" /><path
       id="path3874"
       d="m 543.57143,-336.65568 59.46429,-0.80357 -1.33929,2.85714 -58.125,-2.05357 z"
       style="opacity:0.5;fill:#a8a8a8;fill-opacity:1;fill-rule:evenodd;stroke:#a8a8a8;stroke-width:1px;stroke-linecap:butt;stroke-linejoin:miter;stroke-opacity:1;filter:url(#filter4284)"
       inkscape:connector-curvature="0" /></g></svg>