<?xml version="1.0" encoding="utf-8"?>
<!-- Generator: Adobe Illustrator 18.0.0, SVG Export Plug-In . SVG Version: 6.00 Build 0)  -->
<!DOCTYPE svg PUBLIC "-//W3C//DTD SVG 1.1//EN" "http://www.w3.org/Graphics/SVG/1.1/DTD/svg11.dtd">
<svg version="1.1" id="Layer_1" xmlns="http://www.w3.org/2000/svg" xmlns:xlink="http://www.w3.org/1999/xlink" x="0px" y="0px"
	 viewBox="0 0 2000 2000" enable-background="new 0 0 2000 2000" xml:space="preserve">
<g id="g6340">
	<path id="path5822" fill="#D3603A" d="M2000,999.9C1999.7,447.7,1552,0.2,999.9,0C447.8-0.1,0.3,447.7,0,999.9
		c0.1,552.5,447.5,999.5,999.8,1000.1C1552,1999.8,1999.8,1552.4,2000,999.9"/>
	<path id="path5824" fill="#FFFFFF" d="M1859.3,999.9c0-474.8-385.1-859.4-860-860c-474.8,0.1-860,385.2-859.9,859.5
		c-0.4,475.5,385.1,860.2,859.9,860.6C1474.1,1860,1859.3,1475,1859.3,999.9"/>
	<path id="path5826" fill="#D3603A" d="M536.7,1429.3l225.8-0.2l60.1-181.7h353.8l59.5,181.7l208.5,0.2l-338.5-958H876.7
		L536.7,1429.3 M874,1089.6l99.1-305.4c13.3-40.9,24.2-90.3,24.2-120.2l3.1-0.3c-0.1,32.5,11.7,82.3,24.3,120.9l98.3,304.6
		L874,1089.6z"/>
</g>
</svg>
