<?xml version="1.0" encoding="UTF-8" standalone="no"?>
<!-- Created with Inkscape (http://www.inkscape.org/) -->
<svg
   xmlns:dc="http://purl.org/dc/elements/1.1/"
   xmlns:cc="http://creativecommons.org/ns#"
   xmlns:rdf="http://www.w3.org/1999/02/22-rdf-syntax-ns#"
   xmlns:svg="http://www.w3.org/2000/svg"
   xmlns="http://www.w3.org/2000/svg"
   xmlns:sodipodi="http://sodipodi.sourceforge.net/DTD/sodipodi-0.dtd"
   xmlns:inkscape="http://www.inkscape.org/namespaces/inkscape"
   id="svg2599"
   sodipodi:version="0.32"
   inkscape:version="0.46"
   width="110"
   height="110.00001"
   version="1.0"
   sodipodi:docname="Logo_Paris_Transilien_ligneR.svg"
   inkscape:output_extension="org.inkscape.output.svg.inkscape">
  <metadata
     id="metadata2604">
    <rdf:RDF>
      <cc:Work
         rdf:about="">
        <dc:format>image/svg+xml</dc:format>
        <dc:type
           rdf:resource="http://purl.org/dc/dcmitype/StillImage" />
      </cc:Work>
    </rdf:RDF>
  </metadata>
  <defs
     id="defs2602">
    <inkscape:perspective
       sodipodi:type="inkscape:persp3d"
       inkscape:vp_x="0 : 526.18109 : 1"
       inkscape:vp_y="0 : 1000 : 0"
       inkscape:vp_z="744.09448 : 526.18109 : 1"
       inkscape:persp3d-origin="372.04724 : 350.78739 : 1"
       id="perspective2606" />
    <inkscape:perspective
       id="perspective2393"
       inkscape:persp3d-origin="55 : 36.666669 : 1"
       inkscape:vp_z="110 : 55.000004 : 1"
       inkscape:vp_y="0 : 1000 : 0"
       inkscape:vp_x="0 : 55.000004 : 1"
       sodipodi:type="inkscape:persp3d" />
    <inkscape:perspective
       id="perspective3070"
       inkscape:persp3d-origin="372.04724 : 350.78739 : 1"
       inkscape:vp_z="744.09448 : 526.18109 : 1"
       inkscape:vp_y="0 : 1000 : 0"
       inkscape:vp_x="0 : 526.18109 : 1"
       sodipodi:type="inkscape:persp3d" />
    <inkscape:perspective
       id="perspective3513"
       inkscape:persp3d-origin="372.04724 : 350.78739 : 1"
       inkscape:vp_z="744.09448 : 526.18109 : 1"
       inkscape:vp_y="0 : 1000 : 0"
       inkscape:vp_x="0 : 526.18109 : 1"
       sodipodi:type="inkscape:persp3d" />
    <inkscape:perspective
       id="perspective3743"
       inkscape:persp3d-origin="372.04724 : 350.78739 : 1"
       inkscape:vp_z="744.09448 : 526.18109 : 1"
       inkscape:vp_y="0 : 1000 : 0"
       inkscape:vp_x="0 : 526.18109 : 1"
       sodipodi:type="inkscape:persp3d" />
    <inkscape:perspective
       id="perspective3973"
       inkscape:persp3d-origin="372.04724 : 350.78739 : 1"
       inkscape:vp_z="744.09448 : 526.18109 : 1"
       inkscape:vp_y="0 : 1000 : 0"
       inkscape:vp_x="0 : 526.18109 : 1"
       sodipodi:type="inkscape:persp3d" />
    <inkscape:perspective
       id="perspective4203"
       inkscape:persp3d-origin="372.04724 : 350.78739 : 1"
       inkscape:vp_z="744.09448 : 526.18109 : 1"
       inkscape:vp_y="0 : 1000 : 0"
       inkscape:vp_x="0 : 526.18109 : 1"
       sodipodi:type="inkscape:persp3d" />
  </defs>
  <sodipodi:namedview
     inkscape:window-height="750"
     inkscape:window-width="1280"
     inkscape:pageshadow="2"
     inkscape:pageopacity="0.0"
     guidetolerance="10.0"
     gridtolerance="10.0"
     objecttolerance="10.0"
     borderopacity="1.0"
     bordercolor="#666666"
     pagecolor="#ffffff"
     id="base"
     showgrid="false"
     inkscape:zoom="2.1388889"
     inkscape:cx="-3.6589832"
     inkscape:cy="49.614066"
     inkscape:window-x="409"
     inkscape:window-y="0"
     inkscape:current-layer="svg2599" />
  <rect
     style="fill:#ffffff;fill-opacity:1;fill-rule:nonzero;stroke:#ebbdd7;stroke-width:8.10909080999999787;stroke-linejoin:miter;stroke-miterlimit:4;stroke-dasharray:none;stroke-dashoffset:0;stroke-opacity:1"
     id="rect5674"
     width="101.89091"
     height="101.89091"
     x="4.0545483"
     y="4.0545502"
     ry="14.846948" />
  <path
     style="font-size:75px;font-style:normal;font-variant:normal;font-weight:bold;font-stretch:normal;text-align:start;line-height:125%;writing-mode:lr-tb;text-anchor:start;fill:#ebbdd7;fill-opacity:1;stroke:none;stroke-width:1px;stroke-linecap:butt;stroke-linejoin:miter;stroke-opacity:1;font-family:Myriad Pro;-inkscape-font-specification:Myriad Pro Bold"
     d="M 36.850235,80.462173 L 48.17509,80.462173 L 48.17509,60.587429 L 51.625045,60.587429 C 53.915618,60.564011 55.690593,61.135878 56.949977,62.303032 C 58.20931,63.470222 59.159297,65.598317 59.79994,68.687325 C 60.551465,71.807606 61.223331,74.360695 61.815539,76.346601 C 62.407689,78.332515 62.910806,79.704371 63.324894,80.462173 L 75.024744,80.462173 C 74.524708,79.371563 73.912216,77.465339 73.187266,74.743495 C 72.462234,72.021662 71.699745,69.177953 70.899797,66.212357 C 70.281016,63.873341 69.437278,61.895244 68.36858,60.278059 C 67.299808,58.660914 65.893578,57.489055 64.149884,56.762479 L 64.149884,56.537481 C 66.42482,55.732829 68.456041,54.267224 70.243554,52.140663 C 72.03099,50.014158 72.974728,47.32982 73.074769,44.087642 C 73.068478,41.76271 72.668484,39.718988 71.874784,37.95647 C 71.081005,36.194036 69.931021,34.712807 68.424829,33.512778 C 66.637316,32.100344 64.399847,31.081607 61.712414,30.456566 C 59.024922,29.831625 55.812467,29.525379 52.075039,29.537829 C 49.012561,29.544131 46.1751,29.64413 43.562648,29.837825 C 40.950172,30.031622 38.712704,30.281619 36.850235,30.587816 L 36.850235,80.462173 z M 48.17509,38.387715 C 48.578192,38.306507 49.196934,38.225258 50.031317,38.143966 C 50.865663,38.062759 51.971897,38.01901 53.350023,38.01272 C 55.996838,38.048698 58.05306,38.651814 59.518692,39.822071 C 60.98427,40.992409 61.72801,42.73926 61.749915,45.062629 C 61.728012,47.301696 60.928023,49.067296 59.349946,50.359434 C 57.771814,51.651633 55.546845,52.310999 52.675032,52.337536 L 48.17509,52.337536 L 48.17509,38.387715 z"
     id="text3076" />
</svg>
