<?xml version="1.0" encoding="utf-8"?>
<!-- Generator: Adobe Illustrator 18.0.0, SVG Export Plug-In . SVG Version: 6.00 Build 0)  -->
<!DOCTYPE svg PUBLIC "-//W3C//DTD SVG 1.1//EN" "http://www.w3.org/Graphics/SVG/1.1/DTD/svg11.dtd">
<svg version="1.1" id="Layer_1" xmlns="http://www.w3.org/2000/svg" xmlns:xlink="http://www.w3.org/1999/xlink" x="0px" y="0px"
	 viewBox="0 0 2000 2000" enable-background="new 0 0 2000 2000" xml:space="preserve">
<path fill="#EAC81C" d="M0,1000.1C0,447.7,447.8,0,1000.2,0C1552.1,0,2000,447.8,2000,1000c0.1,552.3-447.8,999.9-999.8,1000
	C447.8,2000,0,1552.2,0,1000.1"/>
<path fill="none" d="M0,1000.1C0,447.7,447.8,0,1000.2,0C1552.1,0,2000,447.8,2000,1000c0.1,552.3-447.8,999.9-999.8,1000
	C447.8,2000,0,1552.2,0,1000.1z"/>
<path fill="#FFFFFF" d="M140.5,1000.5c-0.3-475,384.8-860.4,859.7-860.4c474.8,0,860.1,385.2,860.1,860.2
	c0,474.5-385,859.7-860.1,859.6C525.3,1859.8,140.2,1474.8,140.5,1000.5"/>
<path fill="#EAC81C" d="M1318.2,1437.8l-54-165c-48.7,28.6-117.8,51.9-193.7,51.9c-151.6,0-283.8-117.3-284-317.7
	c-0.1-152.5,68.3-327.5,268.4-327.3c61.6,0,130.8,17.9,194,52.2l69.3-175.9c-69.6-31.6-156.5-55.7-275.3-56
	c-323,0-477.5,244.1-477.5,512.6c0.3,283.4,184.7,492.2,477.5,492.3C1137,1504.6,1248.6,1473.1,1318.2,1437.8"/>
<path fill="none" d="M1318.2,1437.8l-54-165c-48.7,28.6-117.8,51.9-193.7,51.9c-151.6,0-283.8-117.3-284-317.7
	c-0.1-152.5,68.3-327.5,268.4-327.3c61.6,0,130.8,17.9,194,52.2l69.3-175.9c-69.6-31.6-156.5-55.7-275.3-56
	c-323,0-477.5,244.1-477.5,512.6c0.3,283.4,184.7,492.2,477.5,492.3C1137,1504.6,1248.6,1473.1,1318.2,1437.8z"/>
</svg>
