<?xml version="1.0" encoding="utf-8"?>
<!-- Generator: Adobe Illustrator 18.0.0, SVG Export Plug-In . SVG Version: 6.00 Build 0)  -->
<!DOCTYPE svg PUBLIC "-//W3C//DTD SVG 1.1//EN" "http://www.w3.org/Graphics/SVG/1.1/DTD/svg11.dtd">
<svg version="1.1" id="Layer_1" xmlns="http://www.w3.org/2000/svg" xmlns:xlink="http://www.w3.org/1999/xlink" x="0px" y="0px"
	 viewBox="0 0 2000 2000" enable-background="new 0 0 2000 2000" xml:space="preserve">
<path id="path3324" fill="#164B9C" d="M2000,1005C2000,450,1535,0,1002.6,0C450.1,0,0,450,0,1005c0,547.4,450.1,995,1002.6,995
	C1555.1,2000,2000,1557.4,2000,1005"/>
<path id="path3314" fill="#FFFFFF" d="M1862.5,1005c0,470-387.5,857.5-859.9,857.5c-475.1,0-865.1-385-865.1-857.5
	c0-477.4,390-870,865.1-870C1475,135,1862.5,530,1862.5,1005z"/>
<path id="path3310" fill="#164B9C" d="M1717.6,845c0-135-100-197.5-197.6-197.5h-187.4c-35,0-55.1,27.6-55.1,57.5v587.4
	c0,35.2,35.1,52.6,67.5,52.6c37.4,0,67.5-17.5,67.5-52.6V1065h57.5l112.6,252.6c9.9,19.9,27.4,27.5,47.5,27.5
	c40,0,97.5-37.5,75-82.6l-107.6-225C1662.5,1005,1717.6,947.5,1717.6,845z M1210,1280c0-30.1-20-62.5-54.9-62.5H965V1045h157.6
	c34.9,0,54.9-30,54.9-57.5c0-29.9-19.9-57.5-54.9-57.5H965V772.4h175.1c34.9,0,54.9-34.9,54.9-62.4c0-30-20-62.5-54.9-62.5H885
	c-35,0-55,27.6-55,57.5v585c0,35,35,52.5,67.5,52.5h257.5C1190,1342.5,1210,1307.6,1210,1280z M750,845c0-135-100-197.5-197.4-197.5
	H365c-35,0-54.9,27.6-54.9,57.5v587.4c0,35.2,34.9,52.6,67.4,52.6c37.6,0,67.5-17.5,67.5-52.6V1065h57.6l112.5,252.6
	c10,19.9,27.5,27.5,47.5,27.5c40,0,97.5-37.5,75-82.6l-107.4-225C695.1,1005,750,947.5,750,845z M1577.6,860
	c0,85-77.5,104.9-125,104.9h-40.1V762.5h47.5C1522.6,762.5,1577.6,790,1577.6,860z M610.1,860c0,85-77.6,104.9-125,104.9H445V762.5
	h47.5C555.1,762.5,610.1,790,610.1,860z"/>
</svg>
