<?xml version="1.0" encoding="utf-8"?>
<!-- Generator: Adobe Illustrator 18.0.0, SVG Export Plug-In . SVG Version: 6.00 Build 0)  -->
<!DOCTYPE svg PUBLIC "-//W3C//DTD SVG 1.1//EN" "http://www.w3.org/Graphics/SVG/1.1/DTD/svg11.dtd">
<svg version="1.1" id="Layer_1" xmlns="http://www.w3.org/2000/svg" xmlns:xlink="http://www.w3.org/1999/xlink" x="0px" y="0px"
	 viewBox="0 0 2000 2000" enable-background="new 0 0 2000 2000" xml:space="preserve">
<path fill="#D07FB5" d="M0,1000C0,447.6,446.4,0,999.3,0C1552,0,2000,447.6,2000,1000c0,552.1-448,1000-1000.7,1000
	C446.4,2000,0,1552.1,0,1000"/>
<path fill="#FFFFFF" d="M140.8,999.9c0-475.2,385.1-859.9,860-859.9s860,384.9,860,860s-385.1,860.1-860,860.1
	C524.4,1860.1,140.8,1475.2,140.8,999.9"/>
<polyline fill="#D07FB5" points="719.1,1468.6 719.1,518.3 1307.8,518.1 1307.8,689.1 930.4,689.1 930.4,884.2 1294.4,884.2 
	1294.4,1048.3 930.4,1048.6 930.4,1297.8 1327.3,1297.3 1327.3,1468.6 719.1,1468.6 "/>
</svg>
